<svg width="106" height="38" viewBox="0 0 106 38" xmlns="http://www.w3.org/2000/svg">
    <g fill="#7A8599" fill-rule="nonzero">
        <path d="m12.806 9.342-1.907-4.767-1.907 4.767h3.814zm41.946-1.901c-.386.234-.824.234-1.365.234h-3.375V5.044h3.426c.49 0 .98.026 1.314.208.361.183.593.547.593 1.068-.026.521-.232.938-.593 1.12zM78.87 9.342l-1.932-4.767-1.907 4.767h3.84zm-44.961 5.159h-2.86V5.148l-4.045 9.353h-2.448L20.51 5.148v9.353H14.84l-1.03-2.684H8.012l-1.082 2.658h-3.04L8.863 2.543h4.149l4.74 11.307V2.543h4.535l3.633 8.102 3.35-8.102h4.638V14.5zm11.388 0h-9.301V2.569h9.301v2.475h-6.518v2.162h6.364v2.45h-6.364v2.37h6.518V14.5zm13.115-8.728c0 1.902-1.237 2.892-1.958 3.179.618.234 1.134.651 1.366 1.016.386.599.463 1.12.463 2.188v2.345h-2.808V12.99c0-.73.077-1.746-.438-2.319-.412-.417-1.03-.52-2.036-.52h-2.988v4.35h-2.783V2.569h6.39c1.417 0 2.473.026 3.375.573.876.521 1.417 1.303 1.417 2.631zm4.432 8.728h-2.834V2.569h2.834V14.5zm32.954 0h-3.942l-5.282-8.962V14.5h-5.668l-1.082-2.684H74.05l-1.056 2.658h-3.247c-1.34 0-3.066-.313-4.045-1.329-.98-1.016-1.495-2.397-1.495-4.56 0-1.77.31-3.386 1.495-4.662.902-.964 2.319-1.381 4.226-1.381h2.705v2.553h-2.628c-1.005 0-1.598.156-2.139.703-.464.495-.799 1.46-.799 2.71 0 1.276.258 2.188.773 2.813.438.47 1.211.626 1.933.626h1.237l3.916-9.38h4.174l4.715 11.282V2.569h4.252l4.895 8.31V2.57h2.834V14.5zM3.865 16.846h4.767l1.082-2.658h2.396l1.082 2.658h9.353v-2.033l.825 2.033h4.844l.824-2.059v2.059h23.24v-4.351h.439c.31 0 .412.052.412.573v3.778h12.033V15.83c.979.52 2.473 1.016 4.457 1.016h5.05l1.083-2.658h2.396l1.056 2.658h9.74v-2.528l1.468 2.528h7.807V.198h-7.73v1.954L89.408.198h-7.935v1.954L80.467.198H69.748c-1.803 0-3.375.26-4.638.964V.198h-7.395v.964c-.798-.73-1.906-.964-3.143-.964H27.621l-1.804 4.299L23.962.198H15.46v1.954L14.532.198H7.24l-3.375 7.92L0 16.846h3.865zM104.532 28.1v-7.633h-6.983c-1.545 0-2.68.39-3.478.964v-.964h-7.627c-1.21 0-2.653.313-3.323.964v-.964H69.516v.964c-1.082-.808-2.911-.964-3.762-.964h-8.966v.964c-.85-.86-2.757-.964-3.916-.964h-10.05L40.53 23.02l-2.165-2.553H23.344v16.621h14.738l2.37-2.579 2.242 2.58h9.07V33.18h.901c1.211.026 2.629-.027 3.865-.574v4.481h7.498v-4.35h.36c.465 0 .516.026.516.495v3.855h22.751c1.443 0 2.963-.39 3.788-1.068v1.068h7.214c1.495 0 2.963-.208 4.097-.755v-.026a6.021 6.021 0 0 0 2.706-5.054c-.052-1.147-.361-2.24-.928-3.153zm-51.764 2.658H49.29v3.986h-5.41l-3.428-3.96-3.581 3.96H25.843V22.812h11.208l3.427 3.907 3.53-3.907h8.89c2.215 0 4.689.625 4.689 3.934.025 3.308-2.397 4.012-4.819 4.012zm16.748-.547c.387.573.438 1.12.464 2.188v2.37h-2.783v-1.484c0-.73.078-1.772-.463-2.345-.413-.417-1.031-.521-2.036-.521h-2.989v4.325h-2.808V22.812h6.441c1.417 0 2.448.052 3.35.573.876.547 1.443 1.276 1.443 2.657 0 1.902-1.237 2.866-1.984 3.179.618.234 1.133.65 1.365.99zm11.44-4.924h-6.518v2.162h6.364v2.423h-6.364v2.37h6.518v2.476h-9.301V22.786h9.301v2.5zm7.086 9.457h-5.41V32.19h5.41c.515 0 .902-.079 1.134-.287.18-.182.335-.443.335-.782 0-.338-.155-.625-.335-.781-.207-.183-.516-.26-.98-.26-2.602-.079-5.874.077-5.874-3.7 0-1.72 1.056-3.543 3.994-3.543h5.59v2.527h-5.1c-.516 0-.825.026-1.109.208-.309.183-.412.47-.412.86 0 .443.258.755.618.886.284.104.619.13 1.082.13l1.495.052c1.52.026 2.55.313 3.17.964.54.573.824 1.303.824 2.527-.052 2.553-1.624 3.752-4.432 3.752zm14.351-1.147c-.721.756-1.906 1.147-3.452 1.147h-5.385V32.19h5.333c.541 0 .902-.079 1.134-.287.206-.182.335-.443.335-.782 0-.338-.129-.625-.335-.781-.206-.183-.49-.26-.98-.26-2.601-.079-5.874.077-5.874-3.7 0-1.72 1.082-3.543 3.994-3.543h5.437v2.527h-4.973c-.516 0-.85.026-1.134.208-.283.183-.412.47-.412.86 0 .443.257.755.618.886.284.104.619.13 1.082.13l1.52.052c1.52.026 2.551.313 3.17.964.103.078.18.182.257.287a.457.457 0 0 0-.103-.13c.49.65.773 1.458.773 2.344-.025 1.016-.386 1.954-1.005 2.631zm-66.785-8.31 3.04 3.465-3.168 3.49h-6.854v-2.37h6.106v-2.423h-6.106v-2.162h6.982zm6.622 3.517 4.277-4.716v9.561l-4.277-4.845zm12.394-2.058c0 1.042-.67 1.563-1.727 1.563H49.29V25.26h3.633c1.005.026 1.7.442 1.7 1.485zm12.419-.157c0 .521-.206.912-.567 1.147-.36.234-.825.234-1.366.234h-3.375v-2.683h3.401c.49 0 1.005 0 1.34.208.36.208.567.573.567 1.094z"/>
    </g>
</svg>
