<svg width="116" height="74" viewBox="0 0 116 74" xmlns="http://www.w3.org/2000/svg" xmlns:xlink="http://www.w3.org/1999/xlink">
    <defs>
        <rect id="t80z8b7wka" x="0" y="0" width="116" height="74" rx="8"/>
    </defs>
    <g fill="none" fill-rule="evenodd">
        <mask id="bu916p5aeb" fill="#fff">
            <use xlink:href="#t80z8b7wka"/>
        </mask>
        <g fill="#7A8599" fill-rule="nonzero" mask="url(#bu916p5aeb)">
            <path d="M30.289 24.901c.976-1.221 1.64-2.862 1.464-4.538-1.43.07-3.174.943-4.185 2.166-.907 1.047-1.71 2.756-1.5 4.362 1.605.14 3.209-.802 4.22-1.99M31.735 27.205c-2.33-.14-4.313 1.323-5.426 1.323-1.114 0-2.819-1.253-4.662-1.22-2.4.036-4.627 1.393-5.845 3.55-2.505 4.318-.66 10.722 1.775 14.238 1.183 1.74 2.608 3.655 4.487 3.586 1.775-.07 2.47-1.15 4.628-1.15 2.155 0 2.782 1.15 4.66 1.115 1.949-.035 3.167-1.74 4.35-3.482 1.357-1.983 1.912-3.897 1.947-4.002-.035-.035-3.757-1.463-3.791-5.744-.035-3.585 2.922-5.29 3.061-5.396-1.67-2.47-4.28-2.748-5.184-2.818"/>
            <g>
                <path d="M54.978 22.354c5.066 0 8.595 3.492 8.595 8.577 0 5.103-3.601 8.614-8.722 8.614h-5.61v8.92h-4.053V22.354h9.79zM49.24 36.142h4.65c3.53 0 5.538-1.9 5.538-5.193 0-3.293-2.009-5.175-5.52-5.175h-4.668v10.368zM64.578 43.055c0-3.348 2.552-5.266 7.256-5.555l5.049-.308v-1.447c0-2.118-1.394-3.276-3.872-3.276-2.045 0-3.53 1.05-3.837 2.66H65.52c.109-3.384 3.293-5.844 7.6-5.844 4.632 0 7.654 2.424 7.654 6.188v12.992h-3.745v-3.13h-.09c-1.068 2.045-3.421 3.33-5.972 3.33-3.764 0-6.388-2.244-6.388-5.61zm12.305-1.683v-1.466l-4.506.29c-2.533.163-3.854 1.104-3.854 2.75 0 1.593 1.375 2.624 3.528 2.624 2.75 0 4.832-1.755 4.832-4.198zM84.217 55.45v-3.13c.253.036.868.072 1.194.072 1.792 0 2.805-.76 3.42-2.714l.362-1.158-6.858-19h4.234l4.777 15.417h.09l4.778-15.417h4.126l-7.112 19.959c-1.628 4.578-3.492 6.08-7.437 6.08-.307 0-1.303-.036-1.574-.109z"/>
            </g>
        </g>
    </g>
</svg>
