<?xml version="1.0" encoding="UTF-8"?>
<svg width="1888px" height="682px" viewBox="0 0 1888 682" version="1.1" xmlns="http://www.w3.org/2000/svg" xmlns:xlink="http://www.w3.org/1999/xlink">
    <title>ARB_mokafaa_logo (1) (1)</title>
    <g id="Page-1" stroke="none" stroke-width="1" fill="none" fill-rule="evenodd">
        <g id="ARB_mokafaa_logo-(1)-(1)" fill="#7A8599" fill-rule="nonzero">
            <path d="M1837.2896,342.240987 L1726.77028,278.513562 L1726.77028,151.390314 C1726.77028,115.446921 1707.38693,81.9352595 1676.21069,63.9283936 L1588.70408,13.4750041 C1557.52784,-4.49166803 1518.76113,-4.49166803 1487.58489,13.4750041 L1400.07828,63.9685875 C1368.90204,81.9352595 1349.51868,115.446921 1349.51868,151.390314 L1349.51868,278.513562 L1238.99936,342.240987 C1207.82313,360.207659 1188.43977,393.71932 1188.43977,429.662713 L1188.43977,530.609686 C1188.43977,566.553079 1207.82313,600.06474 1238.99936,618.071606 L1326.50597,668.524996 C1342.09912,677.508332 1359.58234,682 1377.06557,682 C1394.54879,682 1412.04207,677.508332 1427.62517,668.524996 L1537.86298,604.968396 L1538.19475,605.129172 L1538.52652,604.968396 L1648.76434,668.524996 C1664.35748,677.508332 1681.84071,682 1699.32393,682 C1716.80716,682 1734.30044,677.508332 1749.88353,668.524996 L1837.4404,618.031413 C1868.61664,600.06474 1888,566.553079 1888,530.609686 L1888,429.662713 C1888,393.71932 1868.61664,360.207659 1837.4404,342.240987 M1404.75321,151.400362 C1404.75321,135.031398 1413.58027,119.787862 1427.76592,111.578259 L1515.27252,61.1248692 C1529.45816,52.9253142 1547.1123,52.9253142 1561.29794,61.1248692 L1648.80455,111.578259 C1662.99019,119.777814 1671.81726,135.031398 1671.81726,151.400362 L1671.81726,247.11208 L1596.26439,203.541896 C1560.51376,182.932475 1516.0567,182.932475 1480.2558,203.541896 L1404.70294,247.11208 L1404.70294,151.400362 L1404.74315,151.400362 L1404.75321,151.400362 Z M1400.21903,620.925373 C1386.03339,629.124928 1368.37925,629.084734 1354.19361,620.925373 L1266.687,570.471984 C1252.50136,562.272429 1243.67429,547.018845 1243.67429,530.64988 L1243.67429,429.702907 C1243.67429,413.333942 1252.50136,398.090407 1266.687,389.880803 L1349.69965,342.029969 L1349.69965,429.542131 C1349.69965,470.801167 1371.92817,509.256678 1407.67881,529.866099 L1482.8999,573.225266 L1400.20898,620.915325 L1400.21903,620.925373 Z M1538.29529,541.663008 L1435.19553,482.226282 C1416.4355,471.383978 1404.72305,451.186545 1404.72305,429.55218 L1404.72305,310.638535 L1507.8228,251.201809 C1526.6331,240.359506 1549.92731,240.359506 1568.73761,251.201809 L1671.83737,310.638535 L1671.83737,429.55218 C1671.83737,451.236787 1660.16513,471.394027 1641.36488,482.226282 L1538.26513,541.663008 L1538.30534,541.663008 L1538.29529,541.663008 Z M1832.91628,530.659928 C1832.91628,547.028893 1824.08921,562.272429 1809.90357,570.482032 L1722.34669,620.975616 C1708.16105,629.134977 1690.50692,629.175171 1676.32128,620.975616 L1593.63035,573.285556 L1668.85144,529.92639 C1704.60208,509.276775 1726.8306,470.861458 1726.8306,429.602422 L1726.8306,342.090259 L1809.84325,389.941094 C1824.02889,398.100455 1832.85596,413.394233 1832.85596,429.763198 L1832.85596,530.710171 L1832.89617,530.669977 L1832.91628,530.659928 Z M417.335337,381.178825 C451.939857,381.178825 462.667058,356.097833 462.667058,335.066376 C462.667058,309.784415 447.083965,283.286588 419.567239,283.286588 C392.050512,283.286588 373.230157,309.382476 373.230157,337.086119 C373.230157,364.789763 388.411106,381.178825 417.345391,381.178825 L417.335337,381.178825 Z M417.938554,310.789262 C437.774323,310.789262 444.248847,326.766336 444.248847,336.071223 C444.248847,346.993915 434.335989,353.666102 418.752896,353.666102 C402.164442,353.666102 391.638314,346.993915 391.638314,334.654388 C391.638314,324.334605 400.545811,310.789262 417.948608,310.789262 L417.938554,310.789262 Z M422.392302,256.788761 C422.392302,250.719483 427.047123,245.6651 433.521647,245.6651 C439.594026,245.6651 444.449919,250.719483 444.449919,256.788761 C444.449919,262.85804 439.594026,267.912422 433.521647,267.912422 C427.047123,267.912422 422.392302,263.059009 422.392302,256.788761 Z M394.664451,256.788761 C394.664451,250.719483 399.721416,245.6651 405.793795,245.6651 C411.866174,245.6651 416.722067,250.719483 416.722067,256.788761 C416.722067,262.85804 412.067247,267.912422 405.793795,267.912422 C399.520343,267.912422 394.664451,262.85804 394.664451,256.788761 Z M512.844617,237.576078 L474.198546,237.576078 L474.198546,225.035582 L480.069854,225.035582 C478.853367,223.015839 478.049078,220.383139 478.049078,217.14753 C478.049078,208.244582 484.32253,199.351682 495.854019,199.351682 C502.529615,199.351682 507.998778,202.98923 510.62277,207.641673 L505.16366,217.14753 C502.941813,215.529726 500.106695,213.509982 495.854019,213.509982 C491.601343,213.509982 486.946522,215.730695 486.946522,219.177322 C486.946522,222.211961 490.787,224.432674 497.673722,224.432674 L512.854671,224.432674 L512.854671,237.576078 L512.844617,237.576078 Z M617.86461,314.024871 C617.86461,283.487557 602.894787,257.793608 575.166935,257.793608 C549.26884,257.793608 532.067116,279.237053 532.067116,304.519014 C532.067116,324.947562 544.211875,339.708771 568.491339,339.708771 C584.878721,339.708771 594.389435,332.634645 599.657525,324.535575 C598.441039,350.219475 584.275505,353.656053 564.248717,353.656053 L525.803718,353.656053 C513.055743,353.656053 504.349318,351.023353 504.349318,335.046279 L504.349318,248.880612 L482.492773,248.880612 L482.492773,342.522344 C482.492773,370.025018 500.910984,381.148679 524.386159,381.148679 L524.486696,381.128582 L524.587232,381.148679 L563.03223,381.148679 C599.054309,381.148679 617.874664,364.156709 617.874664,313.994725 L617.86461,314.024871 Z M571.326457,315.642675 C558.578482,315.642675 550.083182,310.588292 550.083182,301.886314 C550.083182,293.998261 558.377409,283.889496 572.945088,283.889496 C588.327109,283.889496 596.018119,296.229023 598.642111,305.935849 C593.786218,311.39217 584.677649,315.642675 571.326457,315.642675 Z M563.03223,231.707769 C563.03223,225.236552 567.888123,219.770182 575.176989,219.770182 C582.053657,219.770182 586.90955,225.226503 586.90955,231.707769 C586.90955,238.189035 582.053657,243.434339 575.176989,243.434339 C567.888123,243.434339 563.03223,237.978017 563.03223,231.707769 Z M682.831028,381.178825 L696.182219,381.178825 C727.75055,381.178825 740.699597,370.055163 743.936859,352.661254 C762.35507,373.893681 771.865783,381.178825 794.928761,381.178825 L798.166023,381.178825 C810.712926,381.178825 821.641198,375.310516 826.497091,363.583946 C831.554056,373.290772 843.497743,381.992751 862.720242,381.992751 C890.850239,381.992751 907.036548,364.598842 907.036548,340.331776 C907.036548,314.034919 890.850239,294.420297 867.978279,294.420297 C845.10632,294.420297 827.91465,310.397371 820.826856,340.532746 C816.775252,351.857376 807.676736,353.67615 799.372456,353.67615 C778.93347,353.67615 772.056802,348.219829 755.458294,330.011993 L718.832999,289.767854 L791.480373,253.161262 L782.773948,232.129805 L695.759968,277.237406 L695.759968,298.88182 L731.782047,341.155751 C728.946929,350.661608 720.853774,353.696247 697.780743,353.696247 L683.816281,353.696247 C671.269378,353.696247 662.573007,350.460639 662.573007,335.086473 L662.573007,236.390358 L640.716462,236.390358 L640.716462,343.587482 C640.716462,369.884339 657.314969,381.20897 682.81092,381.20897 L682.831028,381.178825 Z M888.427319,341.537593 C888.427319,349.425646 879.720894,354.680998 864.751071,354.680998 C848.966906,354.680998 840.471607,349.626615 836.822147,344.773202 C841.879112,329.811024 852.204168,321.510984 865.55536,321.510984 C878.70548,321.510984 888.427319,330.614902 888.427319,341.537593 Z M179.084926,511.407052 L179.084926,574.310501 L153.387903,574.310501 L153.387903,513.024856 C153.387903,495.028038 146.310163,486.727999 134.165404,486.727999 C120.200942,486.727999 110.489156,496.836764 102.396001,517.265312 L102.396001,574.300452 L76.6989783,574.300452 L76.6989783,513.014808 C76.6989783,495.01799 70.2244545,486.71795 58.0796956,486.71795 C43.9141614,486.71795 34.0013035,496.826715 25.9081488,517.255264 L25.9081488,574.290404 L0,574.290404 L0,467.294249 L25.8980952,467.294249 L25.8980952,487.320859 C35.6098809,472.35868 48.3578563,464.671598 65.5595802,464.671598 C81.7458897,464.671598 94.9060631,471.956741 100.1641,491.169424 C110.076958,473.574546 122.824934,464.671598 141.243144,464.671598 C162.486419,464.671598 179.084926,476.810155 179.084926,511.397003 L179.084926,511.407052 Z M257.402535,464.279707 C226.236349,464.279707 198.920695,484.708255 198.920695,521.113878 C198.920695,557.5195 225.834205,576.933153 257.000391,576.933153 C288.166577,576.933153 316.698718,556.906543 316.698718,520.500921 C316.698718,484.095298 287.965505,464.269659 257.402535,464.269659 L257.402535,464.279707 Z M226.035277,520.31 C226.035277,497.047782 241.0051,485.924121 257.80468,485.924121 C274.604259,485.924121 289.574082,497.861708 289.574082,520.711939 C289.574082,543.562169 275.60962,555.097818 257.402535,555.097818 C239.798667,555.097818 226.035277,543.572218 226.035277,520.31 Z M388.732822,518.692195 L435.884245,574.310501 L403.511626,574.310501 L363.246924,525.565352 L363.246924,574.310501 L337.348829,574.310501 L337.348829,432.124589 L363.246924,432.124589 L363.246924,516.672452 L402.908409,467.324395 L432.657037,467.324395 L388.742875,518.702244 L388.732822,518.692195 Z M526.738704,483.904377 C517.630135,471.162912 504.882159,464.490725 488.494778,464.490725 C459.962637,464.490725 435.884245,484.316365 435.884245,520.922957 C435.884245,557.529549 460.776979,576.742232 488.494778,576.742232 C505.294357,576.742232 517.84126,568.854179 526.738704,554.896848 L526.738704,574.310501 L552.435727,574.310501 L552.435727,467.314346 L526.738704,467.314346 L526.738704,483.904377 Z M526.738704,520.711939 C521.882811,540.738548 509.53698,554.896848 492.335256,554.896848 C475.133532,554.896848 462.988773,542.356352 462.988773,520.510969 C462.988773,498.665586 475.736749,486.32606 492.335256,486.32606 C508.933763,486.32606 521.470613,499.067525 526.738704,519.697043 L526.738704,520.711939 Z M613.953757,467.314346 L642.083753,467.314346 L642.083753,487.139986 L613.953757,487.139986 L613.953757,574.310501 L588.256734,574.310501 L588.256734,487.139986 L571.457154,487.139986 L571.457154,467.314346 L588.256734,467.314346 C589.674292,441.630446 604.644115,429.08995 631.356553,429.08995 C639.248635,429.08995 644.91887,430.104846 649.161493,431.72265 L646.72852,450.734364 C642.475843,449.719468 638.836437,448.513651 633.166202,448.513651 C622.439002,448.513651 614.949064,452.764156 613.943703,467.324395 L613.953757,467.314346 Z M739.010591,483.904377 C729.902022,471.162912 717.154047,464.490725 700.766665,464.490725 C672.234524,464.490725 648.156132,484.316365 648.156132,520.922957 C648.156132,557.529549 673.048867,576.742232 700.766665,576.742232 C717.566244,576.742232 730.113148,568.854179 739.010591,554.896848 L739.010591,574.310501 L764.707614,574.310501 L764.707614,467.314346 L739.010591,467.314346 L739.010591,483.904377 Z M739.010591,520.711939 C734.154698,540.738548 721.808867,554.896848 704.607143,554.896848 C687.405419,554.896848 675.26066,542.356352 675.26066,520.510969 C675.26066,498.665586 688.008636,486.32606 704.607143,486.32606 C721.205651,486.32606 733.7425,499.067525 739.010591,519.697043 L739.010591,520.711939 Z M876.614329,483.904377 C867.50576,471.162912 854.757784,464.490725 838.370403,464.490725 C809.838262,464.490725 785.75987,484.316365 785.75987,520.922957 C785.75987,557.529549 810.652604,576.742232 838.370403,576.742232 C855.169982,576.742232 867.716886,568.854179 876.614329,554.896848 L876.614329,574.310501 L902.311352,574.310501 L902.311352,467.314346 L876.614329,467.314346 L876.614329,483.904377 Z M876.614329,520.711939 C871.758436,540.738548 859.412605,554.896848 842.210881,554.896848 C825.009157,554.896848 812.864398,542.356352 812.864398,520.510969 C812.864398,498.665586 825.612374,486.32606 842.210881,486.32606 C858.809389,486.32606 871.346238,499.067525 876.614329,519.697043 L876.614329,520.711939 Z M1046.28908,576.742232 L1032.58601,576.742232 L1032.58601,199.331585 L1046.28908,199.331585 L1046.28908,576.732183 L1046.28908,576.742232 Z" id="Shape"></path>
        </g>
    </g>
</svg>