<svg width="100" height="34" viewBox="0 0 100 34" xmlns="http://www.w3.org/2000/svg">
    <g fill="#7A8599" fill-rule="nonzero">
        <path d="M0 19.386h42.213v14.207H0zM0 0h42.213v14.22H0zM84.425 30.706l-.188.038c-.651.127-.89.177-1.366.177-1.103 0-2.406-.57-2.406-3.254 0-1.38.225-3.216 2.28-3.216h.013c.351.025.752.063 1.504.291l.163.05v5.914zm.339-13.384-.339.063v4.964l-.3-.089-.088-.025c-.339-.101-1.116-.33-1.868-.33-4.11 0-4.976 3.141-4.976 5.775 0 3.609 2.006 5.685 5.503 5.685 1.479 0 2.569-.152 3.672-.519 1.015-.33 1.379-.798 1.379-1.798V16.803c-.978.177-1.993.355-2.983.52zm11.881 13.473-.175.05-.627.165c-.589.152-1.115.24-1.516.24-.965 0-1.542-.48-1.542-1.304 0-.531.238-1.43 1.817-1.43h2.043v2.279zm-1.44-8.952c-1.267 0-2.57.227-4.187.734l-1.053.317.351 2.405 1.028-.341c1.078-.355 2.419-.583 3.421-.583.452 0 1.83 0 1.83 1.507v.658h-1.917c-3.497 0-5.114 1.127-5.114 3.546 0 2.064 1.491 3.305 3.998 3.305.777 0 1.855-.152 2.783-.38l.05-.013.05.013.313.05c.978.178 1.993.355 2.983.545v-7.901c0-2.558-1.529-3.862-4.537-3.862zm-22.912 8.952-.176.05-.626.165c-.59.152-1.103.24-1.517.24-.965 0-1.541-.48-1.541-1.304 0-.531.238-1.43 1.804-1.43h2.043l.013 2.279zm-1.429-8.952c-1.278 0-2.57.227-4.186.734l-1.053.317.351 2.405 1.028-.341c1.078-.355 2.419-.583 3.421-.583.452 0 1.83 0 1.83 1.507v.658h-1.917c-3.497 0-5.126 1.127-5.126 3.546 0 2.064 1.491 3.305 4.01 3.305.777 0 1.855-.152 2.783-.38l.05-.013.05.013.3.05c.99.178 1.994.355 2.984.558v-7.902c.012-2.583-1.517-3.874-4.525-3.874zm-11.769.025c-1.592 0-2.908.532-3.396.76l-.126.063-.112-.089c-.677-.494-1.667-.747-3.046-.747-1.216 0-2.356.178-3.597.545-1.066.329-1.48.848-1.48 1.823v9.028h3.335v-8.344l.163-.05c.676-.229 1.078-.267 1.466-.267.965 0 1.454.52 1.454 1.532v7.142h3.284v-7.28c0-.431-.088-.685-.1-.735l-.113-.216.225-.1a3.918 3.918 0 0 1 1.63-.343c.664 0 1.453.266 1.453 1.532v7.142h3.272v-7.47c0-2.647-1.404-3.926-4.312-3.926zm35.094-12.6c-.489 0-1.304-.05-1.943-.176l-.188-.038V4.179c0-.406-.075-.659-.088-.697l-.1-.202.213-.09c.05-.024.1-.037.163-.062l.038-.026.225-.076c.038-.012.063-.025.088-.025.74-.203 1.416-.177 1.717-.203h.013c2.043 0 2.28 1.836 2.28 3.217-.012 2.684-1.328 3.254-2.418 3.254zM94.176 0h-.087C92.17 0 90.203.532 89.5 1.57c-.376.507-.589 1.14-.601 1.887v5.027c0 .43-.088.595-.1.633l-.113.215h-6.054V5.837h-.013c-.075-3.684-2.23-5.71-5.351-5.71h-3.046c-.125.899-.226 1.532-.35 2.43h3.032c1.592 0 2.432 1.368 2.432 3.47v3.52l-.213-.114a2.28 2.28 0 0 0-.715-.1H73.17c-.1.67-.225 1.544-.363 2.418h16.105c.552-.114 1.19-.216 1.742-.304.815.405 2.332.62 3.372.62 3.497 0 5.765-2.368 5.765-6.014C99.78 2.443 97.585.076 94.176 0zM65.938 13.232h.15c3.498 0 5.127-1.165 5.127-4.04 0-2.063-1.491-3.71-3.998-3.71h-3.221c-.965 0-1.542-.556-1.542-1.493 0-.633.238-1.419 1.818-1.419h7.043c.15-.924.226-1.506.364-2.43h-7.32c-3.409 0-5.126 1.443-5.126 3.849 0 2.38 1.492 3.621 3.998 3.621h3.221c.965 0 1.542.772 1.542 1.583 0 .532-.238 1.633-1.805 1.633h-.539l-10.315-.025h-1.88c-1.592 0-2.707-.912-2.707-3.026V6.319c0-2.204.865-3.571 2.707-3.571h3.058c.138-.937.226-1.532.351-2.419h-4.173c-3.121 0-5.277 2.115-5.352 5.8v1.646c.075 3.684 2.23 5.445 5.352 5.445h3.045l5.59.012h4.612z"/>
    </g>
</svg>
