<svg width="70" height="55" viewBox="0 0 70 55" xmlns="http://www.w3.org/2000/svg">
    <g fill-rule="nonzero" fill="none">
        <path d="M15.406 50.677c0-.99.643-1.805 1.693-1.805 1.004 0 1.682.779 1.682 1.805 0 1.026-.678 1.805-1.682 1.805-1.05 0-1.693-.814-1.693-1.805zm4.52 0v-2.819h-1.214v.685c-.385-.508-.97-.827-1.764-.827-1.565 0-2.792 1.24-2.792 2.961 0 1.723 1.227 2.96 2.792 2.96.794 0 1.379-.318 1.764-.825v.684h1.213v-2.819zm41.017 0c0-.99.643-1.805 1.694-1.805 1.005 0 1.681.779 1.681 1.805 0 1.026-.676 1.805-1.681 1.805-1.051 0-1.694-.814-1.694-1.805zm4.52 0v-5.083H64.25v2.949c-.385-.508-.97-.827-1.763-.827-1.566 0-2.793 1.24-2.793 2.961 0 1.723 1.227 2.96 2.793 2.96.794 0 1.378-.318 1.763-.825v.684h1.215v-2.819zm-30.47-1.863c.781 0 1.284.495 1.412 1.368h-2.897c.13-.814.62-1.368 1.484-1.368zm.023-1.098c-1.636 0-2.78 1.203-2.78 2.961 0 1.793 1.19 2.96 2.862 2.96.84 0 1.61-.211 2.288-.789l-.595-.909a2.653 2.653 0 0 1-1.624.59c-.782 0-1.494-.366-1.67-1.38h4.146c.012-.153.024-.307.024-.472-.012-1.758-1.087-2.96-2.65-2.96zm14.657 2.961c0-.99.643-1.805 1.693-1.805 1.004 0 1.682.779 1.682 1.805 0 1.026-.678 1.805-1.682 1.805-1.05 0-1.693-.814-1.693-1.805zm4.52 0v-2.819h-1.215v.685c-.386-.508-.969-.827-1.763-.827-1.565 0-2.792 1.24-2.792 2.961 0 1.723 1.227 2.96 2.792 2.96.794 0 1.377-.318 1.763-.825v.684h1.214v-2.819zm-11.375 0c0 1.71 1.179 2.96 2.978 2.96.84 0 1.4-.188 2.008-.672l-.583-.99c-.456.33-.934.507-1.461.507-.97-.012-1.682-.72-1.682-1.805s.713-1.793 1.682-1.805c.527 0 1.005.177 1.46.508l.584-.991c-.607-.484-1.167-.673-2.008-.673-1.8 0-2.978 1.25-2.978 2.961zm15.65-2.96c-.701 0-1.157.33-1.473.826v-.685h-1.203v5.638h1.215v-3.16c0-.933.397-1.452 1.192-1.452.245 0 .502.035.759.142l.374-1.156a2.562 2.562 0 0 0-.865-.154zm-32.54.59c-.583-.39-1.388-.59-2.276-.59-1.414 0-2.324.684-2.324 1.804 0 .92.677 1.487 1.926 1.664l.573.082c.666.095.98.271.98.59 0 .436-.444.685-1.272.685-.841 0-1.448-.272-1.857-.59l-.572.954c.665.495 1.506.732 2.417.732 1.612 0 2.546-.767 2.546-1.84 0-.991-.735-1.51-1.95-1.687l-.572-.083c-.526-.07-.947-.176-.947-.554 0-.413.397-.66 1.063-.66.712 0 1.402.271 1.74.483l.526-.99zm15.662-.59c-.7 0-1.156.33-1.47.826v-.685h-1.203v5.638h1.214v-3.16c0-.933.397-1.452 1.19-1.452.247 0 .503.035.76.142l.374-1.156a2.562 2.562 0 0 0-.865-.154zm-10.358.141h-1.985v-1.71H28.02v1.71h-1.133v1.12h1.133v2.573c0 1.308.502 2.087 1.938 2.087.527 0 1.133-.165 1.518-.436l-.35-1.05c-.362.211-.76.318-1.075.318-.606 0-.804-.378-.804-.944V48.98h1.985v-1.12zm-18.15 5.638v-3.538c0-1.333-.84-2.23-2.196-2.242-.712-.012-1.448.212-1.962 1.004-.385-.626-.992-1.004-1.845-1.004-.596 0-1.179.177-1.635.837v-.695H4.23v5.638h1.226v-3.125c0-.98.537-1.499 1.367-1.499.806 0 1.214.53 1.214 1.486v3.138h1.227v-3.125c0-.98.56-1.499 1.366-1.499.83 0 1.226.53 1.226 1.486v3.138h1.227z" fill="#7A8599"/>
        <path fill="#42526E" d="M43.973 38.289H25.576V4.899h18.397z"/>
        <path d="M26.755 21.591c0-6.773 3.14-12.806 8.03-16.694A20.804 20.804 0 0 0 21.792.357C10.18.356.768 9.863.768 21.59c0 11.728 9.412 21.236 21.024 21.236 4.904 0 9.417-1.698 12.993-4.54a21.276 21.276 0 0 1-8.03-16.696" fill="#7A8599"/>
        <path d="M68.783 21.591c0 11.728-9.412 21.236-21.023 21.236a20.81 20.81 0 0 1-12.995-4.54 21.273 21.273 0 0 0 8.031-16.696c0-6.773-3.14-12.806-8.031-16.694A20.81 20.81 0 0 1 47.76.357c11.61 0 21.023 9.507 21.023 21.234" fill="#7A8599"/>
    </g>
</svg>
