<svg width="100" height="52" viewBox="0 0 100 52" xmlns="http://www.w3.org/2000/svg">
    <g fill="#7A8599" fill-rule="nonzero">
        <path d="M14.004 0c5.874 0 12.004 4.718 12.015 11.453.012 7.806-11.19 19.37-11.972 20.167l-.043.044-.043-.044C13.18 30.822 1.978 19.243 1.99 11.453 2 4.708 8.13 0 14.004 0zm1.192 12.49H13v4.366c-2.217-.169-3.326-1.83-3.326-1.83H7.152c2.74 5.027 8.044 3.945 8.044 3.945v-6.48zm6.61-.076h-2.221s-.346 3.235-3.692 4.317v2.158l.02-.003c.335-.066 4.973-1.07 5.894-6.472zm-7.445-8.237h-.131c-1.03.01-4.692.254-6.468 3.161h2.909s.03-.023.09-.064l.083-.056c.776-.507 4.024-2.31 7.175.661H7.239s-1.867 2.83-.433 6.568h2.39s-1.434-2.536-.437-4.41h12.834l-.008-.044a3.96 3.96 0 0 0-.029-.13l-.032-.128c-.3-1.148-1.732-5.195-7.02-5.555l-.143-.003zm-.273 6.03c-.61 0-1.114.473-1.114 1.062 0 .585.504 1.053 1.114 1.053.61 0 1.108-.468 1.108-1.053 0-.589-.498-1.062-1.108-1.062zM97.803 5.38h1.465v8.107h-1.465V5.38zm-4.27 8.101c-.091 0-.164-.004-.22-.014a.264.264 0 0 1-.136-.059.227.227 0 0 1-.067-.13 1.24 1.24 0 0 1-.017-.231v-.395c0-.071.003-.133.008-.183a.234.234 0 0 1 .05-.127.241.241 0 0 1 .13-.074c.059-.015.142-.022.251-.022h1.341V5.373h1.465v8.108h-2.806zm-5.922 0v-1.235h2.163c.226 0 .409-.017.55-.051a.8.8 0 0 0 .324-.144.458.458 0 0 0 .152-.223.966.966 0 0 0 .04-.282c0-.18-.055-.376-.164-.587a3.649 3.649 0 0 0-.431-.64 7.308 7.308 0 0 0-.603-.643c-.224-.213-.45-.411-.679-.596l1.06-1.038c.732.606 1.29 1.195 1.672 1.77.384.573.575 1.117.575 1.633 0 .184-.02.364-.062.541.192.09.4.156.623.198.223.041.457.062.701.062h.045c.105 0 .188.007.248.022s.104.04.133.074a.234.234 0 0 1 .05.127c.006.05.009.112.009.183v.395c0 .098-.006.175-.017.231a.227.227 0 0 1-.068.13.264.264 0 0 1-.135.06c-.056.009-.13.013-.22.013h-.062c-.424 0-.783-.054-1.076-.163a2.46 2.46 0 0 1-.75-.429 2.15 2.15 0 0 1-.78.434c-.317.106-.705.158-1.163.158h-2.135zm-5.724-2.403a2.403 2.403 0 0 1 .724-1.735c.227-.22.497-.393.81-.52a2.718 2.718 0 0 1 1.023-.188c.365 0 .69.054.978.163.287.11.53.267.73.474.199.207.352.46.459.76.107.298.16.636.16 1.012v2.437h-6.304c-.09 0-.165-.004-.225-.014a.287.287 0 0 1-.144-.059.247.247 0 0 1-.076-.13.938.938 0 0 1-.023-.231v-.395c0-.071.005-.133.014-.183.01-.051.03-.093.06-.127a.262.262 0 0 1 .138-.074c.061-.015.147-.022.256-.022h1.73a2.079 2.079 0 0 1-.22-.525c-.06-.21-.09-.425-.09-.643zm3.425 1.168v-.97a2.39 2.39 0 0 0-.084-.689 1.269 1.269 0 0 0-.223-.443.783.783 0 0 0-.318-.237 1.012 1.012 0 0 0-.372-.07.922.922 0 0 0-.403.09.989.989 0 0 0-.327.25 1.235 1.235 0 0 0-.22.385 1.425 1.425 0 0 0-.081.493c0 .177.03.339.09.486a1.079 1.079 0 0 0 .662.62c.16.057.34.085.544.085h.732zm-1.55-5.513a.7.7 0 0 1 .212-.51.698.698 0 0 1 .51-.212.698.698 0 0 1 .51.212.7.7 0 0 1 .211.51.7.7 0 0 1-.211.51.698.698 0 0 1-.51.212.698.698 0 0 1-.51-.211.7.7 0 0 1-.211-.51zm-7.487 5.355a10.395 10.395 0 0 1-1-1.05 7.639 7.639 0 0 1-.24-.304 8.614 8.614 0 0 0-.388-.508c.015-.08.04-.172.076-.28.036-.107.076-.213.121-.318.045-.106.095-.2.15-.285a.548.548 0 0 1 .166-.178c.124-.064.274-.133.45-.206a5.33 5.33 0 0 1 .595-.203 6.34 6.34 0 0 1 .715-.155c.258-.042.527-.062.809-.062.229 0 .46.022.696.067.234.046.447.116.639.212.192.096.348.221.47.375a.864.864 0 0 1 .184.553 2.168 2.168 0 0 1-.225.925c-.091.189-.219.397-.384.627-.165.23-.383.48-.653.75a5.107 5.107 0 0 0 .699.138c.134.017.275.032.422.043.146.011.29.017.434.017h.478c.106 0 .188.007.248.022s.105.04.133.074a.234.234 0 0 1 .05.127c.006.05.009.112.009.183v.395c0 .098-.006.175-.017.231a.227.227 0 0 1-.068.13.264.264 0 0 1-.135.06c-.056.009-.13.013-.22.013h-.777c-.293 0-.568-.022-.825-.067a6.252 6.252 0 0 1-.708-.164 4.786 4.786 0 0 1-.569-.206 7.77 7.77 0 0 1-.41-.194 3.52 3.52 0 0 0-.683.38 2.733 2.733 0 0 0-.535.503c-.15.186-.266.388-.35.606-.082.218-.123.45-.123.694 0 .188.03.374.093.559.062.184.16.348.293.49.133.144.304.26.513.348.208.088.46.132.757.132.177 0 .384-.017.623-.05.238-.034.474-.076.707-.125v1.146a23.93 23.93 0 0 1-.383.09 5.216 5.216 0 0 1-.65.104c-.104.01-.214.014-.33.014-.534 0-.993-.079-1.378-.237a2.883 2.883 0 0 1-.952-.609 2.399 2.399 0 0 1-.555-.835 2.519 2.519 0 0 1-.18-.92c0-.312.05-.606.149-.883.1-.276.244-.54.434-.792s.42-.492.693-.72c.272-.227.583-.447.932-.657zm2.057-1.85a.402.402 0 0 0-.074-.232.633.633 0 0 0-.208-.186 1.258 1.258 0 0 0-.321-.127 1.646 1.646 0 0 0-.412-.048c-.09 0-.192.007-.307.022a3.256 3.256 0 0 0-.355.068c-.122.03-.245.066-.369.107a3.276 3.276 0 0 0-.343.136c.06.097.143.219.25.364a9.312 9.312 0 0 0 .75.888c.137.143.267.262.391.356a3.71 3.71 0 0 0 .465-.398 2.67 2.67 0 0 0 .307-.373 1.54 1.54 0 0 0 .172-.327.774.774 0 0 0 .054-.25zM68.72 5.378h1.465v8.108H68.72V5.38zm-4.27 8.102c-.09 0-.164-.004-.22-.014a.264.264 0 0 1-.136-.059.227.227 0 0 1-.067-.13 1.24 1.24 0 0 1-.017-.231v-.395c0-.071.003-.133.008-.183a.234.234 0 0 1 .051-.127.241.241 0 0 1 .13-.074c.058-.015.141-.022.25-.022h1.341V5.373h1.465v8.108H64.45zm-3.663.063c-.266 0-.504-.023-.712-.068a2.96 2.96 0 0 1-.564-.178 2.317 2.317 0 0 1-.44-.248 4.606 4.606 0 0 1-.34-.274c-.33.47-.815.705-1.454.705h-.445c-.09 0-.163-.004-.22-.014a.264.264 0 0 1-.135-.059.227.227 0 0 1-.067-.13 1.24 1.24 0 0 1-.017-.231v-.395c0-.071.003-.133.008-.183a.234.234 0 0 1 .05-.127.241.241 0 0 1 .13-.074c.059-.015.142-.022.251-.022h.27a.82.82 0 0 0 .485-.147c.14-.098.24-.25.304-.457.184-.613.395-1.109.631-1.487.237-.378.481-.67.733-.874.251-.205.498-.343.74-.412a2.401 2.401 0 0 1 1.418.005c.229.074.434.173.617.297.182.124.34.269.473.434a2.645 2.645 0 0 1 .53 1.103c.043.198.064.389.064.573a2.396 2.396 0 0 1-.09.649c.2.109.422.189.668.24.246.05.504.076.774.076h.045c.106 0 .188.007.248.022s.105.04.133.074a.234.234 0 0 1 .05.127c.006.05.009.112.009.183v.395c0 .098-.006.175-.017.231a.227.227 0 0 1-.068.13.264.264 0 0 1-.135.06c-.056.009-.13.013-.22.013h-.062c-.225 0-.431-.016-.62-.047a2.677 2.677 0 0 1-.515-.139 2.313 2.313 0 0 1-.769-.474c-.199.218-.443.393-.732.525-.29.132-.626.198-1.009.198zm.947-2.28a1.4 1.4 0 0 0-.073-.426 1.458 1.458 0 0 0-.22-.426 1.275 1.275 0 0 0-.364-.33.937.937 0 0 0-.498-.133.828.828 0 0 0-.499.167 1.656 1.656 0 0 0-.405.437c-.119.18-.222.388-.31.62a4.524 4.524 0 0 0-.206.717c.049.05.124.1.225.153.102.052.216.1.344.144.128.043.26.079.397.107a1.972 1.972 0 0 0 .893-.017c.15-.04.28-.102.386-.186a.807.807 0 0 0 .245-.33c.057-.136.085-.301.085-.497zm-8.293.982c.123 0 .23-.013.318-.04a.447.447 0 0 0 .214-.132.592.592 0 0 0 .121-.251c.026-.106.04-.237.04-.395V8.86h1.47v2.765c0 .068-.003.135-.008.2a6.2 6.2 0 0 1-.02.195c.184.075.382.132.594.17.212.037.433.056.662.056h.045c.105 0 .188.007.248.022s.104.04.133.074a.234.234 0 0 1 .05.127c.006.05.009.112.009.183v.395c0 .098-.006.175-.017.231a.227.227 0 0 1-.068.13.264.264 0 0 1-.135.06c-.056.009-.13.013-.22.013h-.062a3.18 3.18 0 0 1-.96-.126 2.666 2.666 0 0 1-.702-.336 1.388 1.388 0 0 1-.493.338 1.855 1.855 0 0 1-.718.124h-.248a3.01 3.01 0 0 1-1.006-.158 2.82 2.82 0 0 1-.78-.411 1.423 1.423 0 0 1-.51.414c-.208.104-.472.155-.791.155h-.248c-.376 0-.715-.053-1.017-.16a2.77 2.77 0 0 1-.786-.42 1.418 1.418 0 0 1-.513.422c-.21.106-.475.158-.794.158H45.58c-.09 0-.163-.004-.22-.014a.264.264 0 0 1-.135-.059.227.227 0 0 1-.067-.13 1.24 1.24 0 0 1-.017-.231v-.395c0-.071.002-.133.008-.183a.234.234 0 0 1 .05-.127.241.241 0 0 1 .13-.074c.059-.015.142-.022.251-.022h1.166c.124 0 .23-.013.319-.04a.447.447 0 0 0 .214-.132.592.592 0 0 0 .12-.251c.027-.106.04-.237.04-.395v-1.45h1.47v1.78a.807.807 0 0 1-.01.132c.206.117.41.205.614.266.202.06.4.09.591.09.124 0 .23-.013.318-.04a.447.447 0 0 0 .215-.132.592.592 0 0 0 .12-.251c.027-.106.04-.237.04-.395V9.47h1.47v2.155a3.465 3.465 0 0 1-.01.277c.202.112.403.198.602.256.2.059.393.088.58.088zm-9.088-.62c0 .067-.003.134-.009.2a6.2 6.2 0 0 1-.02.194c.185.075.383.132.595.17.212.037.433.056.662.056h.045c.105 0 .188.007.248.022s.104.04.132.074a.234.234 0 0 1 .051.127c.006.05.009.112.009.183v.395c0 .098-.006.175-.017.231a.227.227 0 0 1-.068.13.264.264 0 0 1-.135.06c-.056.009-.13.013-.22.013h-.062a3.18 3.18 0 0 1-.96-.126 2.666 2.666 0 0 1-.702-.336 1.388 1.388 0 0 1-.493.338 1.855 1.855 0 0 1-.718.124h-1.138c-.09 0-.164-.004-.22-.014a.264.264 0 0 1-.135-.059.227.227 0 0 1-.068-.13 1.24 1.24 0 0 1-.017-.231v-.395c0-.071.003-.133.009-.183a.234.234 0 0 1 .05-.127.241.241 0 0 1 .13-.074c.058-.015.142-.022.25-.022h.637c.124 0 .23-.013.319-.04a.447.447 0 0 0 .214-.132.592.592 0 0 0 .12-.251c.027-.106.04-.237.04-.395V8.86h1.47v2.765zM42.905 15.1a.7.7 0 0 1 .211-.51.698.698 0 0 1 .51-.212.698.698 0 0 1 .51.211.7.7 0 0 1 .211.51.7.7 0 0 1-.211.511.698.698 0 0 1-.51.212.698.698 0 0 1-.51-.212.7.7 0 0 1-.211-.51zm-4.874-1.62c-.473 0-.873-.07-1.2-.208a2.281 2.281 0 0 1-.797-.542 2.042 2.042 0 0 1-.445-.75 2.647 2.647 0 0 1-.138-.835c0-.347.062-.671.186-.974a2.3 2.3 0 0 1 .532-.79c.231-.224.51-.4.837-.527a2.993 2.993 0 0 1 1.099-.192c.165 0 .338.015.518.045s.358.084.532.16c.175.078.34.182.496.314.156.132.293.298.412.5.118.2.212.44.281.719.07.278.104.602.104.97v.875h1.122c.105 0 .19.007.253.022.064.015.111.04.141.074.03.034.05.076.06.127.009.05.013.112.013.183v.395a.938.938 0 0 1-.022.231.247.247 0 0 1-.076.13.287.287 0 0 1-.144.06c-.06.009-.135.013-.225.013h-1.133a4.569 4.569 0 0 1-.487 1.45 3.83 3.83 0 0 1-.885 1.095c-.355.301-.764.532-1.228.694-.464.162-.97.243-1.518.243-.62 0-1.166-.077-1.637-.232a3.343 3.343 0 0 1-1.18-.646 2.659 2.659 0 0 1-.713-.99 3.366 3.366 0 0 1-.183-1.86c.037-.208.09-.416.158-.625.067-.209.146-.413.236-.612.09-.2.19-.382.299-.548l1.172.66c-.064.098-.121.21-.172.336-.05.126-.093.26-.127.4-.034.142-.06.285-.079.43a3.31 3.31 0 0 0-.028.426c0 .297.049.57.147.82.097.25.244.466.44.647.194.18.439.321.731.423.293.101.633.152 1.02.152.33 0 .643-.054.935-.164a2.523 2.523 0 0 0 1.355-1.179c.153-.278.251-.585.296-.92h-.958zm.958-1.235v-.542a3.93 3.93 0 0 0-.093-.945 1.685 1.685 0 0 0-.242-.57.764.764 0 0 0-.34-.28 1.08 1.08 0 0 0-.39-.072.922.922 0 0 0-.402.09c-.126.06-.236.145-.33.254-.094.109-.168.24-.223.392-.054.152-.081.32-.081.505 0 .158.024.308.073.451a.943.943 0 0 0 .234.373c.107.105.244.189.411.25.167.063.37.094.606.094h.777zm-.85-5.513a.7.7 0 0 1 .21-.51.698.698 0 0 1 .51-.212.698.698 0 0 1 .51.212.7.7 0 0 1 .211.51.7.7 0 0 1-.21.51.698.698 0 0 1-.51.212.698.698 0 0 1-.51-.211.7.7 0 0 1-.211-.51zm-1.69 0a.7.7 0 0 1 .21-.51.698.698 0 0 1 .51-.212.698.698 0 0 1 .51.212.7.7 0 0 1 .211.51.7.7 0 0 1-.21.51.698.698 0 0 1-.51.212.698.698 0 0 1-.51-.211.7.7 0 0 1-.211-.51zm58.047 23.604a2.403 2.403 0 0 1 .724-1.735c.227-.22.497-.393.81-.519a2.718 2.718 0 0 1 1.023-.189c.365 0 .69.054.978.164.287.109.53.267.73.474.199.206.352.46.459.758.107.3.16.637.16 1.013v2.438h-6.304c-.09 0-.165-.005-.226-.014a.287.287 0 0 1-.143-.06.247.247 0 0 1-.076-.13.938.938 0 0 1-.023-.23v-.396c0-.071.005-.132.014-.183.01-.05.03-.093.06-.127a.262.262 0 0 1 .137-.073c.062-.015.148-.023.257-.023h1.73a2.079 2.079 0 0 1-.22-.525c-.06-.21-.09-.425-.09-.643zm3.425 1.168v-.97a2.39 2.39 0 0 0-.084-.689 1.269 1.269 0 0 0-.223-.443.783.783 0 0 0-.318-.237 1.012 1.012 0 0 0-.372-.07.922.922 0 0 0-.403.09.989.989 0 0 0-.327.251 1.235 1.235 0 0 0-.22.384 1.425 1.425 0 0 0-.081.494c0 .176.03.338.09.485a1.079 1.079 0 0 0 .662.62c.16.057.34.085.544.085h.732zm-1.55-5.513a.7.7 0 0 1 .212-.51.698.698 0 0 1 .51-.212.698.698 0 0 1 .51.212.7.7 0 0 1 .211.51.7.7 0 0 1-.211.511.698.698 0 0 1-.51.212.698.698 0 0 1-.51-.212.7.7 0 0 1-.211-.51zm-8.755 4.503c0-.794.21-1.39.631-1.789.421-.398 1.069-.598 1.944-.598h1.741v2.45c0 .21.01.377.028.501.019.124.05.22.09.285a.29.29 0 0 0 .167.13.91.91 0 0 0 .256.031h.625c.106 0 .188.008.248.023s.104.04.133.073a.234.234 0 0 1 .05.127c.006.05.009.112.009.183v.395c0 .098-.006.175-.017.232a.227.227 0 0 1-.068.13.264.264 0 0 1-.135.059c-.056.009-.13.014-.22.014h-.946c-.21 0-.418-.032-.623-.096a1.484 1.484 0 0 1-.546-.308 1.542 1.542 0 0 1-.386-.544 2.014 2.014 0 0 1-.147-.813v-1.687c-.214 0-.406.016-.577.048a.954.954 0 0 0-.434.192.892.892 0 0 0-.27.4 2.022 2.022 0 0 0-.093.675v1.687c0 .369-.084.729-.251 1.08-.167.352-.41.665-.727.94a3.695 3.695 0 0 1-1.163.663 4.529 4.529 0 0 1-1.56.251 5.803 5.803 0 0 1-1.449-.16 4.189 4.189 0 0 1-1.067-.424 3.001 3.001 0 0 1-.744-.598 3.161 3.161 0 0 1-.468-.683 2.877 2.877 0 0 1-.242-.68 2.878 2.878 0 0 1-.07-.586c0-.215.02-.43.061-.647.042-.216.098-.426.17-.629a3.796 3.796 0 0 1 .58-1.066l1.155.626a2.113 2.113 0 0 0-.206.347c-.062.13-.114.266-.158.41a3.436 3.436 0 0 0-.101.437 2.268 2.268 0 0 0 .003.835 1.709 1.709 0 0 0 .43.854c.123.136.28.255.471.359.192.103.42.186.688.248.266.062.582.093.946.093.35 0 .663-.044.941-.132.278-.089.514-.205.707-.35.193-.145.34-.312.442-.5a1.21 1.21 0 0 0 .152-.58v-1.908zm-2.112 6.1a.7.7 0 0 1 .211-.511.698.698 0 0 1 .51-.212.698.698 0 0 1 .51.212.7.7 0 0 1 .211.51.7.7 0 0 1-.211.511.698.698 0 0 1-.51.212.698.698 0 0 1-.51-.212.7.7 0 0 1-.211-.51zm-1.69 0a.7.7 0 0 1 .21-.511.698.698 0 0 1 .51-.212.698.698 0 0 1 .51.212.7.7 0 0 1 .211.51.7.7 0 0 1-.21.511.698.698 0 0 1-.51.212.698.698 0 0 1-.51-.212.7.7 0 0 1-.211-.51zm-9.762-14.01h2.542V32.74h-2.542V22.584zM67.967 32.74a.775.775 0 0 1-.225-.028.254.254 0 0 1-.144-.113.67.67 0 0 1-.078-.25 3.13 3.13 0 0 1-.025-.442v-.373c0-.141.004-.264.011-.367a.643.643 0 0 1 .06-.25.315.315 0 0 1 .14-.142.595.595 0 0 1 .261-.045h1.423v-8.147h2.55v10.157h-3.973zm-7.704-.776c-.23.24-.494.429-.792.568a2.457 2.457 0 0 1-1.046.208h-.486a.738.738 0 0 1-.222-.028.27.27 0 0 1-.144-.113.625.625 0 0 1-.081-.25 3.13 3.13 0 0 1-.025-.442v-.373c0-.141.003-.264.01-.367a.643.643 0 0 1 .06-.25.315.315 0 0 1 .141-.142.595.595 0 0 1 .26-.045h.395c.141 0 .26-.022.356-.064a.767.767 0 0 0 .246-.17.892.892 0 0 0 .166-.239c.042-.09.08-.183.112-.282.226-.696.502-1.273.828-1.732.326-.458.668-.822 1.025-1.093.356-.27.712-.46 1.067-.567.354-.109.67-.163.947-.163.38 0 .728.047 1.042.141a3.116 3.116 0 0 1 1.497.96c.185.216.338.445.457.687a3.508 3.508 0 0 1 .363 1.499c0 .216-.026.442-.077.677.248.127.511.216.788.268.277.052.543.078.796.078h.035c.113 0 .2.015.261.045.061.031.108.078.14.142a.643.643 0 0 1 .06.25c.008.103.011.226.011.367v.373c0 .184-.008.33-.024.441a.67.67 0 0 1-.078.25.254.254 0 0 1-.144.114.775.775 0 0 1-.226.028h-.056a2.64 2.64 0 0 1-.584-.067 3.215 3.215 0 0 1-.585-.194 3.722 3.722 0 0 1-.56-.307 3.536 3.536 0 0 1-.51-.413 3.13 3.13 0 0 1-1.04.762c-.42.198-.923.296-1.51.296a5.1 5.1 0 0 1-.894-.074 5.693 5.693 0 0 1-.771-.19 4.33 4.33 0 0 1-.648-.268 3.76 3.76 0 0 1-.51-.314l-.05-.007zm3.887-2.313c0-.15-.026-.297-.077-.438a1.103 1.103 0 0 0-.592-.635 1.184 1.184 0 0 0-.493-.098c-.347 0-.666.146-.958.437-.29.292-.535.766-.732 1.425.103.06.22.118.352.173.132.054.267.102.405.144.139.042.277.075.416.099.138.023.266.035.383.035.184 0 .354-.02.511-.06.157-.04.295-.104.412-.194a.897.897 0 0 0 .275-.352c.065-.146.098-.325.098-.536zm-5.725 2.256c0 .184-.008.33-.025.441a.67.67 0 0 1-.077.25.254.254 0 0 1-.145.114.775.775 0 0 1-.225.028h-1.17c-.337 0-.662-.023-.975-.067a8.473 8.473 0 0 1-.873-.17 7.32 7.32 0 0 1-.74-.225 10.055 10.055 0 0 1-.573-.23c-.418.189-.897.35-1.437.487a6.996 6.996 0 0 1-1.718.205H49.29a.775.775 0 0 1-.226-.028.254.254 0 0 1-.144-.113.67.67 0 0 1-.078-.25 3.13 3.13 0 0 1-.024-.442v-.373c0-.141.003-.264.01-.367a.643.643 0 0 1 .06-.25.315.315 0 0 1 .141-.142.595.595 0 0 1 .26-.045h1.268c.193 0 .38-.006.564-.018.183-.012.356-.03.52-.053a5.968 5.968 0 0 1-.619-.737 15.703 15.703 0 0 0-.465-.631c-.131-.174-.245-.321-.341-.441a6.205 6.205 0 0 0-.215-.257l-.021-.015a4.797 4.797 0 0 1 .324-.924c.075-.16.157-.304.246-.433a.9.9 0 0 1 .282-.279c.169-.08.372-.167.61-.26.236-.095.501-.182.795-.262.293-.08.61-.145.947-.197a7.028 7.028 0 0 1 1.064-.078c.328 0 .663.033 1.003.099.34.066.65.17.926.31.277.141.504.325.68.55.176.226.264.499.264.819 0 .098-.019.235-.056.409a3.59 3.59 0 0 1-.205.613 6.13 6.13 0 0 1-.405.78c-.171.284-.39.581-.658.892a8.174 8.174 0 0 0 1.366.113h.789c.113 0 .2.015.26.045.061.031.108.078.141.142a.643.643 0 0 1 .06.25c.007.103.01.226.01.367v.373zm-4.705-1.812c.235-.183.43-.354.585-.511.155-.158.28-.298.373-.42.094-.122.16-.23.2-.321a.594.594 0 0 0 .06-.222.294.294 0 0 0-.112-.226.899.899 0 0 0-.285-.162 1.946 1.946 0 0 0-.388-.095 2.865 2.865 0 0 0-.419-.032 3.01 3.01 0 0 0-.288.018 6.316 6.316 0 0 0-.768.127c-.131.03-.246.067-.345.109.31.47.577.843.803 1.118.225.275.42.48.584.617zM43.523 33.84c.413-.085.733-.201.961-.35.228-.147.397-.32.507-.518.11-.197.177-.417.2-.659.024-.242.036-.5.036-.772v-5.008h2.542v4.197h1.536c.112 0 .2.015.26.045.061.031.108.078.141.142a.643.643 0 0 1 .06.25c.007.103.01.226.01.367v.373c0 .184-.008.33-.024.441a.67.67 0 0 1-.078.25.254.254 0 0 1-.144.114.775.775 0 0 1-.225.028h-1.67a4.468 4.468 0 0 1-.397 1.202c-.181.355-.423.667-.726.935a3.999 3.999 0 0 1-1.105.677 6.653 6.653 0 0 1-1.54.416l-.344-2.13zm-13.846-2.765c0-.122-.015-.282-.046-.48a7.868 7.868 0 0 0-.345-1.375 7.282 7.282 0 0 0-.299-.74l2.479-.663c.07.188.14.39.208.606.068.217.134.439.197.667.063.228.12.456.172.684.052.228.092.448.12.66a4.368 4.368 0 0 0 1.254.274c.131-.3.292-.625.482-.973s.411-.696.662-1.044c.251-.348.534-.681.849-1.001.314-.32.66-.603 1.035-.85a5.297 5.297 0 0 1 1.222-.593 4.411 4.411 0 0 1 1.419-.222c.615 0 1.147.1 1.595.297a3.01 3.01 0 0 1 1.11.814c.29.346.506.754.647 1.224.141.47.211.978.211 1.523v2.857h-8.26c-.404 0-.804-.041-1.201-.124a5.877 5.877 0 0 1-1.11-.342c-.117.517-.31.991-.58 1.421-.27.43-.61.8-1.018 1.108-.408.308-.88.548-1.412.72a5.756 5.756 0 0 1-1.771.257c-.803 0-1.494-.116-2.074-.346-.58-.23-1.057-.538-1.43-.924a3.61 3.61 0 0 1-.824-1.333 4.706 4.706 0 0 1-.264-1.566c0-.244.021-.508.063-.79.043-.282.106-.567.19-.857.085-.289.19-.576.314-.86a5.76 5.76 0 0 1 .426-.8c.352.192.702.38 1.05.56.347.181.697.366 1.049.554-.197.32-.356.662-.476 1.026s-.18.7-.18 1.005c0 .301.05.58.149.836.098.256.244.478.436.666.193.188.432.337.719.445.286.108.62.162 1 .162.347 0 .658-.055.933-.166.274-.11.508-.271.7-.483.193-.212.34-.471.444-.78a3.31 3.31 0 0 0 .155-1.054zm10.43-1.058c0-.366-.036-.67-.109-.913a1.48 1.48 0 0 0-.313-.585 1.115 1.115 0 0 0-.5-.314 2.284 2.284 0 0 0-.677-.092c-.253 0-.52.06-.799.18-.28.12-.553.293-.82.518-.268.226-.52.501-.757.825-.237.325-.44.69-.61 1.094h4.585v-.713zm-3.176-6.637c0-.169.032-.326.095-.472.063-.146.15-.274.257-.384a1.193 1.193 0 0 1 .845-.357c.165 0 .318.032.461.096.144.063.27.15.377.26.108.111.194.24.257.385.064.146.095.303.095.472 0 .17-.031.327-.095.473a1.224 1.224 0 0 1-.634.638 1.125 1.125 0 0 1-.46.096 1.15 1.15 0 0 1-.466-.096 1.222 1.222 0 0 1-.637-.638 1.172 1.172 0 0 1-.095-.473zM2.057 45.5h.503c.169 0 .328-.016.479-.05.15-.032.282-.087.396-.164a.824.824 0 0 0 .273-.308c.067-.128.1-.288.1-.48 0-.197-.033-.362-.1-.496a.852.852 0 0 0-.277-.322 1.175 1.175 0 0 0-.409-.176 2.181 2.181 0 0 0-.495-.054h-.47v2.05zM.71 42.387h1.742c.322 0 .65.03.981.092.332.061.643.167.934.317a1.476 1.476 0 0 1 .655.685c.068.142.116.293.146.453.03.16.044.323.044.49 0 .391-.067.723-.201.994a1.796 1.796 0 0 1-.547.66c-.23.17-.501.292-.813.367a4.218 4.218 0 0 1-.993.113h-.6v2.553H.71v-6.724zm5.376 1.764H7.23v1.128h.019c.025-.154.077-.296.155-.428s.167-.255.268-.371c.119-.138.259-.246.42-.325a1.16 1.16 0 0 1 .514-.117 2.076 2.076 0 0 1 .394.037v1.298a.866.866 0 0 0-.284-.085 2.4 2.4 0 0 0-.293-.018.877.877 0 0 0-.434.098.88.88 0 0 0-.292.261 1.316 1.316 0 0 0-.18.374 2.692 2.692 0 0 0-.097.435c-.02.149-.032.298-.037.447a13 13 0 0 0-.007.406v1.82H6.086v-4.96zm6.822 1.993a1.789 1.789 0 0 0-.076-.458 1.101 1.101 0 0 0-.192-.372.877.877 0 0 0-.32-.247 1.086 1.086 0 0 0-.46-.089c-.175 0-.33.03-.467.09a1.05 1.05 0 0 0-.577.613 1.626 1.626 0 0 0-.101.463h2.193zm.863 2.69c-.256.15-.53.254-.821.31a4.603 4.603 0 0 1-.878.085c-.416 0-.785-.056-1.106-.167a2.109 2.109 0 0 1-.81-.494 2.127 2.127 0 0 1-.5-.806 3.276 3.276 0 0 1-.171-1.105c0-.36.047-.7.14-1.018.095-.318.236-.596.426-.833.189-.236.428-.424.716-.561a2.325 2.325 0 0 1 1.014-.207c.178 0 .357.013.537.04.18.026.353.072.52.136.165.064.318.15.46.259.14.108.26.242.36.402.095.15.172.312.233.486.061.174.11.354.146.539.036.185.061.37.077.557.016.186.024.366.024.538v.038h-3.423c.016.197.062.374.138.529a1.232 1.232 0 0 0 .735.637c.166.056.346.085.54.085.294 0 .58-.047.855-.141.275-.095.538-.215.788-.363v1.054zm1.376-4.683h1.23v.705h.024c.075-.144.168-.268.279-.372.111-.103.233-.188.366-.254.133-.065.276-.114.427-.145a2.28 2.28 0 0 1 .463-.047c.385 0 .71.07.976.211s.48.33.644.567c.162.237.28.51.352.823.072.312.108.638.108.98 0 .345-.037.675-.11.99a2.384 2.384 0 0 1-.362.832c-.168.24-.385.431-.653.574-.267.142-.595.214-.983.214-.307 0-.575-.058-.805-.172a2.12 2.12 0 0 1-.646-.515h-.019v2.591h-1.291v-6.982zm2.456.888a.936.936 0 0 0-.54.15 1.17 1.17 0 0 0-.357.386 1.77 1.77 0 0 0-.197.52 2.304 2.304 0 0 0 .005 1.084c.043.185.11.355.201.51.091.155.208.283.352.385a.863.863 0 0 0 .512.153.862.862 0 0 0 .528-.155c.14-.103.25-.234.334-.39.083-.157.141-.33.176-.52a3.043 3.043 0 0 0 .004-1.081 1.744 1.744 0 0 0-.166-.513 1.054 1.054 0 0 0-.327-.38.88.88 0 0 0-.525-.149zm3.638-.625a4.359 4.359 0 0 1 1.78-.376c.679 0 1.195.167 1.549.5.354.334.53.846.53 1.536 0 .51.004 1.017.012 1.518.008.502.03 1.008.064 1.52h-1.137a9.5 9.5 0 0 1-.04-.37 4.24 4.24 0 0 1-.016-.374h-.019a1.64 1.64 0 0 1-.284.362 1.756 1.756 0 0 1-.79.44c-.151.04-.303.059-.456.059-.216 0-.428-.033-.634-.1a1.79 1.79 0 0 1-.554-.286 1.436 1.436 0 0 1-.392-.463 1.305 1.305 0 0 1-.148-.628c0-.163.018-.32.054-.47.036-.15.1-.295.195-.433.125-.181.277-.326.455-.432.179-.107.371-.187.578-.242.206-.055.421-.09.645-.106.224-.016.444-.024.66-.024.11 0 .217.001.324.003l.31.002c0-.197-.022-.364-.066-.5a.75.75 0 0 0-.204-.332.821.821 0 0 0-.35-.183 1.943 1.943 0 0 0-.498-.057c-.285 0-.554.047-.81.141a2.67 2.67 0 0 0-.716.4l-.042-1.105zm.695 3.263a.51.51 0 0 0 .075.284c.05.077.114.14.193.189a.81.81 0 0 0 .263.103c.097.02.192.03.286.03.207 0 .384-.04.533-.12.149-.08.27-.186.364-.32.094-.132.163-.285.209-.458.045-.172.068-.35.068-.536v-.028h-.78c-.134 0-.274.014-.418.043a1.272 1.272 0 0 0-.392.143.87.87 0 0 0-.288.266.699.699 0 0 0-.113.404zm6.493.094h.019l1.193-3.62h1.305l-1.855 4.922-.195.53a5.499 5.499 0 0 1-.21.505c-.078.16-.164.31-.261.449-.097.14-.211.26-.34.364-.13.104-.282.185-.454.243-.172.058-.37.087-.596.087-.31 0-.615-.046-.916-.137l.085-.954c.1.04.21.065.33.075.121.01.233.014.336.014.12 0 .231-.02.336-.061a.765.765 0 0 0 .43-.435 1.062 1.062 0 0 0 .07-.339c.003-.033.003-.05 0-.054l-1.892-5.21h1.423l1.192 3.621zm6.179-3.357a4.359 4.359 0 0 1 1.78-.376c.678 0 1.195.167 1.549.5.353.334.53.846.53 1.536 0 .51.004 1.017.012 1.518.008.502.029 1.008.063 1.52h-1.136a9.5 9.5 0 0 1-.04-.37 4.24 4.24 0 0 1-.016-.374h-.019a1.64 1.64 0 0 1-.284.362 1.756 1.756 0 0 1-.791.44c-.15.04-.302.059-.456.059-.216 0-.427-.033-.633-.1a1.79 1.79 0 0 1-.554-.286 1.436 1.436 0 0 1-.392-.463 1.305 1.305 0 0 1-.148-.628c0-.163.018-.32.054-.47.036-.15.1-.295.194-.433.126-.181.277-.326.456-.432.178-.107.37-.187.577-.242.207-.055.422-.09.646-.106.224-.016.444-.024.66-.024.11 0 .217.001.324.003l.31.002c0-.197-.022-.364-.066-.5a.75.75 0 0 0-.205-.332.821.821 0 0 0-.35-.183 1.943 1.943 0 0 0-.497-.057c-.285 0-.555.047-.81.141a2.67 2.67 0 0 0-.716.4l-.042-1.105zm.695 3.263a.51.51 0 0 0 .075.284c.05.077.114.14.192.189a.81.81 0 0 0 .263.103c.097.02.193.03.287.03.206 0 .384-.04.533-.12.148-.08.27-.186.363-.32.094-.132.164-.285.21-.458.045-.172.067-.35.067-.536v-.028h-.779c-.135 0-.274.014-.418.043a1.272 1.272 0 0 0-.392.143.87.87 0 0 0-.289.266.699.699 0 0 0-.112.404zm6.423 1.552c-.257 0-.483-.036-.679-.108a1.274 1.274 0 0 1-.49-.316 1.345 1.345 0 0 1-.299-.505c-.067-.199-.1-.426-.1-.68v-2.524h-.949v-.945h.948v-.993l1.292-.413v1.406h1.145v.945H41.45v2.35c0 .1.01.197.03.29.02.092.054.175.101.249a.52.52 0 0 0 .474.242c.1 0 .201-.01.303-.028a.834.834 0 0 0 .284-.108l.038 1.02c-.154.047-.311.078-.472.094a4.97 4.97 0 0 1-.481.024zm4.403-1.773c.235.132.51.238.822.32a4.055 4.055 0 0 0 1.44.096c.132-.017.25-.05.354-.096a.606.606 0 0 0 .246-.198.558.558 0 0 0 .092-.334c0-.213-.079-.374-.235-.484a2.43 2.43 0 0 0-.59-.284c-.233-.08-.487-.16-.762-.238a2.95 2.95 0 0 1-.766-.338 1.83 1.83 0 0 1-.586-.583c-.157-.248-.235-.576-.235-.983 0-.401.089-.737.267-1.006a1.99 1.99 0 0 1 .69-.63c.276-.154.587-.262.935-.325a5.539 5.539 0 0 1 1.033-.099c.328 0 .642.023.941.069.299.045.561.105.787.18l-.113 1.388a3.031 3.031 0 0 0-.73-.235 4.15 4.15 0 0 0-.763-.07c-.113 0-.239.004-.378.013-.14.01-.27.035-.392.075a.76.76 0 0 0-.308.189.476.476 0 0 0-.124.347c0 .176.078.314.235.414.16.094.356.177.589.25.233.072.487.147.763.225.269.072.524.184.765.334.235.147.43.343.587.588.156.247.235.572.235.973 0 .436-.083.796-.25 1.081a1.893 1.893 0 0 1-.663.68 2.834 2.834 0 0 1-.946.353 5.832 5.832 0 0 1-1.094.1c-.16 0-.323-.006-.489-.018a8.493 8.493 0 0 1-.52-.057 5.442 5.442 0 0 1-.992-.216l.155-1.481zm5.77-5.567h1.728v2.948h.02c.187-.266.419-.476.694-.63.275-.154.603-.23.981-.23.341 0 .633.055.876.166.242.112.44.26.594.447.153.187.265.4.335.642.07.241.106.49.106.748v3.131h-1.728v-2.426c0-.47-.075-.798-.225-.983a.698.698 0 0 0-.573-.277c-.36 0-.63.124-.81.374-.18.249-.27.646-.27 1.192v2.12H51.9V41.89zm9.085 6.127c.198 0 .367-.04.51-.118.142-.078.26-.182.352-.31.092-.129.16-.278.202-.447.042-.17.063-.346.063-.531 0-.185-.02-.363-.063-.534a1.344 1.344 0 0 0-.202-.454 1.032 1.032 0 0 0-.352-.315 1.041 1.041 0 0 0-.51-.117c-.197 0-.367.039-.509.117-.142.079-.26.184-.352.315-.092.132-.16.283-.202.454-.042.17-.063.349-.063.534 0 .185.02.362.063.531.042.17.11.318.202.447.092.128.21.232.352.31.142.078.312.118.51.118zm0 1.213c-.413 0-.797-.06-1.152-.177a2.711 2.711 0 0 1-.925-.512 2.368 2.368 0 0 1-.615-.823 2.63 2.63 0 0 1-.223-1.107c0-.414.074-.784.223-1.11.149-.326.354-.602.615-.828a2.72 2.72 0 0 1 .925-.517c.355-.119.74-.178 1.152-.178.41 0 .793.06 1.148.178.356.12.664.292.925.517.262.226.467.502.618.828.15.326.225.696.225 1.11 0 .413-.075.783-.225 1.107-.15.324-.356.599-.618.823-.261.224-.57.395-.925.512a3.633 3.633 0 0 1-1.148.177zm3.296-5.135h1.808l.807 3.611h.024l.864-3.61h2.075l.845 3.61h.024l.788-3.61h1.672l-1.53 5.016h-2.01l-.845-3.63h-.02l-.952 3.63h-2.01l-1.54-5.017zm13.109 1.387a1.054 1.054 0 0 0-.291-.052 9.161 9.161 0 0 0-.296-.004c-.204 0-.383.035-.54.106a1.04 1.04 0 0 0-.394.308 1.43 1.43 0 0 0-.245.493 2.364 2.364 0 0 0-.084.659v2.12h-1.728v-5.017h1.578v.926h.019c.144-.322.331-.576.563-.761.228-.188.534-.282.915-.282.104 0 .205.007.303.02.099.015.194.028.284.04l-.084 1.444zm3.361 2.535c.198 0 .367-.04.51-.118.142-.078.26-.182.352-.31.092-.129.16-.278.202-.447.042-.17.063-.346.063-.531 0-.185-.02-.363-.063-.534a1.344 1.344 0 0 0-.202-.454 1.032 1.032 0 0 0-.352-.315 1.041 1.041 0 0 0-.51-.117c-.197 0-.367.039-.509.117-.142.079-.26.184-.352.315-.092.132-.16.283-.202.454-.042.17-.063.349-.063.534 0 .185.02.362.063.531.042.17.11.318.202.447.092.128.21.232.352.31.142.078.312.118.51.118zm0 1.213c-.413 0-.797-.06-1.152-.177a2.711 2.711 0 0 1-.925-.512 2.368 2.368 0 0 1-.615-.823 2.63 2.63 0 0 1-.223-1.107c0-.414.074-.784.223-1.11.149-.326.354-.602.615-.828a2.72 2.72 0 0 1 .925-.517c.355-.119.74-.178 1.152-.178.41 0 .793.06 1.148.178.356.12.664.292.925.517.262.226.467.502.618.828.15.326.225.696.225 1.11 0 .413-.075.783-.225 1.107-.15.324-.356.599-.618.823-.261.224-.57.395-.925.512a3.633 3.633 0 0 1-1.148.177zm6.423-1.213c.197 0 .367-.04.51-.118.142-.078.26-.182.352-.31.092-.129.16-.278.202-.447.042-.17.063-.346.063-.531 0-.185-.021-.363-.063-.534a1.344 1.344 0 0 0-.202-.454 1.032 1.032 0 0 0-.352-.315 1.041 1.041 0 0 0-.51-.117c-.197 0-.367.039-.51.117-.142.079-.259.184-.351.315-.093.132-.16.283-.202.454-.042.17-.064.349-.064.534 0 .185.022.362.064.531.042.17.11.318.202.447.092.128.21.232.352.31.142.078.312.118.51.118zm0 1.213c-.413 0-.797-.06-1.152-.177a2.711 2.711 0 0 1-.925-.512 2.368 2.368 0 0 1-.615-.823 2.63 2.63 0 0 1-.223-1.107c0-.414.074-.784.223-1.11.148-.326.353-.602.615-.828a2.72 2.72 0 0 1 .925-.517c.355-.119.74-.178 1.152-.178.41 0 .793.06 1.148.178.355.12.664.292.925.517.261.226.467.502.617.828.15.326.226.696.226 1.11 0 .413-.075.783-.226 1.107-.15.324-.356.599-.617.823-.261.224-.57.395-.925.512a3.633 3.633 0 0 1-1.148.177zm3.752-5.135h1.577v.926h.019a1.71 1.71 0 0 1 .744-.794c.158-.085.329-.148.512-.188.183-.041.373-.061.57-.061.357 0 .674.079.95.237.278.158.484.4.618.726.104-.169.22-.315.35-.437.13-.122.27-.222.423-.298.151-.077.312-.134.48-.172.17-.038.344-.056.522-.056.363 0 .66.05.89.15.23.1.41.244.54.43.13.187.219.415.267.684.049.27.073.574.073.913v2.957h-1.728v-2.694a1.88 1.88 0 0 0-.04-.4.954.954 0 0 0-.124-.315.6.6 0 0 0-.216-.204.64.64 0 0 0-.315-.073.83.83 0 0 0-.72.374c-.174.249-.26.646-.26 1.192v2.12h-1.729v-2.694a1.88 1.88 0 0 0-.04-.4.954.954 0 0 0-.124-.315.6.6 0 0 0-.216-.204.64.64 0 0 0-.314-.073.83.83 0 0 0-.721.374c-.174.249-.26.646-.26 1.192v2.12h-1.728v-5.017z"/>
    </g>
</svg>
