<?xml version="1.0" encoding="UTF-8"?>
<svg width="116px" height="74px" viewBox="0 0 116 74" version="1.1" xmlns="http://www.w3.org/2000/svg" xmlns:xlink="http://www.w3.org/1999/xlink">
    <title>tabby-new</title>
    <defs>
        <rect id="path-1" x="0" y="0" width="116" height="74" rx="8"></rect>
    </defs>
    <g id="Badges-/-Icons" stroke="none" stroke-width="1" fill="none" fill-rule="evenodd">
        <g id="Payment-Methods" transform="translate(-1656, -1082)">
            <g id="tabby-new" transform="translate(1656, 1082)">
                <mask id="mask-2" fill="white">
                    <use xlink:href="#path-1"></use>
                </mask>
                <g id="Mask"></g>
                <path d="M86.4885721,29.9980438 L89.97,44.942 L93.9007127,29.9980438 L98,29.9980438 L92.7308921,50 L88.6316048,50 L88.6512657,49.9608764 L89.873,45.314 L86.1248464,45.3149452 L82.1042025,29.9980438 L86.4885721,29.9980438 Z M24.7436717,25 L24.7436717,26.1932707 C24.7436717,28.1298905 23.3280904,30.0762911 20.8508233,30.5555556 L21.836,30.426 L29.5310887,29.2449139 L29.5310887,32.1498435 L24.497,32.922 L24.497911,33.8712833 L24.5077415,33.8712833 L24.507,34.27 L29.5310887,33.4996088 L29.5310887,36.2773865 L24.497,37.05 L24.497911,40.1604069 C24.497911,40.1848592 24.5003686,40.2093114 24.5028262,40.2337637 L24.5077415,40.3071205 L24.5077415,40.3853678 L24.5235096,40.5344143 C24.6700828,41.5888262 25.4959129,41.8035994 26.9063652,41.8035994 C27.6043254,41.8035994 28.3416073,41.6373239 28.8822807,41.3536776 L28.9314328,41.3243349 L28.9314328,44.9530516 L28.9117719,44.9628326 C27.9680511,45.3834116 26.739248,45.6377152 25.6185795,45.6377152 C22.463013,45.6377152 20.5362497,43.9064945 20.3986237,41.0015649 L20.398,37.679 L18,38.0477308 L18,35.2699531 L20.398,34.901 L20.398,33.552 L18,33.9201878 L18,31.0152582 L20.443,30.64 L20.6345539,30.5848983 L20.6345539,25 L24.7436717,25 Z M42.4580978,34.8395931 C42.2909806,31.6118936 40.265913,29.6948357 36.9628901,29.6948357 C35.0656181,29.6948357 33.4927501,30.4284038 32.4310641,31.8075117 C31.3693782,33.1866197 30.809044,35.2112676 30.809044,37.6662754 C30.809044,40.1212833 31.3693782,42.1557121 32.4310641,43.5250391 C33.4927501,44.9041471 35.0656181,45.6377152 36.9628901,45.6377152 C40.265913,45.6377152 42.300811,43.7108764 42.4580978,40.463615 L42.4580978,45.334507 L46.5672155,45.334507 L46.5672155,30.0273865 L42.4580978,30.6533646 M42.6743672,37.6662754 C42.6743672,40.5320814 41.1604817,42.3806729 38.8306709,42.3806729 C36.4222168,42.3806729 34.9869747,40.6201095 34.9869747,37.6662754 C34.9869747,34.7026604 36.4222168,32.9225352 38.8306709,32.9225352 C40.0004915,32.9225352 40.983534,33.372457 41.6618334,34.2331768 C42.3204719,35.0841158 42.6743672,36.2676056 42.6743672,37.6662754 Z M58.5505038,29.6948357 C55.2376505,29.6948357 53.2125829,31.6118936 53.0552961,34.849374 L53.0552961,25.5770736 L48.9461784,26.2030516 L48.9461784,45.334507 L53.0552961,45.334507 L53.0552961,40.463615 C53.2125829,43.7108764 55.247481,45.6377152 58.5505038,45.6377152 C62.4236913,45.6377152 64.7338412,42.6545383 64.7338412,37.6662754 C64.7338412,32.6780125 62.4236913,29.6948357 58.5505038,29.6948357 Z M56.682723,42.3806729 C54.3430818,42.3806729 52.8390268,40.5320814 52.8390268,37.6662754 C52.8390268,36.2676056 53.1929221,35.0841158 53.8515606,34.2429577 C54.5298599,33.3822379 55.5129024,32.9323161 56.682723,32.9323161 C59.0911772,32.9323161 60.5264193,34.7026604 60.5264193,37.6760563 C60.5264193,40.6201095 59.0911772,42.3806729 56.682723,42.3806729 Z M75.9110347,29.6948357 C72.5981814,29.6948357 70.5731138,31.6118936 70.415827,34.849374 L70.415827,25.5770736 L66.3067093,26.2030516 L66.3067093,45.334507 L70.415827,45.334507 L70.415827,40.463615 C70.5731138,43.7108764 72.6080118,45.6377152 75.9110347,45.6377152 C79.7842222,45.6377152 82.0943721,42.6545383 82.0943721,37.6662754 C82.0943721,32.6780125 79.7842222,29.6948357 75.9110347,29.6948357 Z M74.0530843,42.3806729 C71.7134431,42.3806729 70.2093881,40.5320814 70.2093881,37.6662754 C70.2093881,36.2676056 70.5632834,35.0841158 71.2219218,34.2429577 C71.9002212,33.3822379 72.8832637,32.9323161 74.0530843,32.9323161 C76.4615385,32.9323161 77.8967805,34.7026604 77.8967805,37.6760563 C77.8967805,40.6201095 76.4615385,42.3806729 74.0530843,42.3806729 Z" id="Combined-Shape" fill="#7A8599" fill-rule="nonzero" mask="url(#mask-2)"></path>
            </g>
        </g>
    </g>
</svg>