<?xml version="1.0" encoding="UTF-8"?>
<svg width="116px" height="74px" viewBox="0 0 116 74" version="1.1" xmlns="http://www.w3.org/2000/svg" xmlns:xlink="http://www.w3.org/1999/xlink">
    <title>tamara-new</title>
    <defs>
        <rect id="path-1" x="0" y="0" width="116" height="74" rx="8"></rect>
    </defs>
    <g id="Badges-/-Icons" stroke="none" stroke-width="1" fill="none" fill-rule="evenodd">
        <g id="Payment-Methods" transform="translate(-1214.000000, -1082.000000)">
            <g id="tamara-new" transform="translate(1214.000000, 1082.000000)">
                <mask id="mask-2" fill="white">
                    <use xlink:href="#path-1"></use>
                </mask>
                <g id="Mask"></g>
                <path d="M38.4866453,32.7581413 C37.0524905,32.2053512 35.665132,31.9375269 33.9180707,32.3169447 C32.5542267,32.6121929 31.4581227,33.1753254 30.7384843,34.5797935 C31.0547666,34.8441823 31.3392694,35.0947571 31.6170205,35.3437703 C32.0739245,35.750624 32.547475,36.1694899 33.1817858,36.6570657 C33.68374,35.9222785 34.5606465,35.0947571 35.5011122,35.0758979 C36.5922106,35.0535552 37.6381425,35.6699019 37.8105437,36.5729802 C37.8808546,36.9472808 37.9276509,38.4940935 37.9276509,38.4940935 L37.3553858,38.6195011 C37.2420038,38.6628651 37.1172137,38.6628651 37.0039481,38.6195011 L36.9136149,38.5834644 L36.8399283,38.5542747 C35.6646663,38.0880807 34.4181623,37.8393078 33.1582713,37.8193675 C32.7346601,37.8192474 32.311631,37.8531218 31.8931419,37.9207506 C30.6079901,38.1284418 29.0801264,38.8735594 29.1069004,41.2513771 C29.1169115,42.1561371 29.3009536,42.8343467 29.6891765,43.3854671 C30.030836,43.8881782 30.48774,44.297074 31.019844,44.5757573 C31.5518316,44.8545608 32.1426056,44.9946232 32.7398985,44.9838123 C34.1996632,45.0295788 35.6245053,44.5209817 36.7412137,43.5553198 C36.7646118,43.5364606 37.0307221,43.297898 37.1076682,43.2360351 L37.8958713,42.6093579 L37.8958713,44.9666348 L41.1843018,44.9666348 L41.1843018,36.7257755 C41.1859295,34.859558 40.1952917,33.4174917 38.4866453,32.7581413 Z M37.4708632,40.502776 C36.7679877,41.7938487 35.6215951,42.5235907 34.3029177,42.5235907 C34.24774,42.5235907 34.1908162,42.5235907 34.1356385,42.5235907 C33.8582366,42.5177047 33.5822316,42.4814278 33.3122799,42.4153607 C32.3266477,42.1492901 31.7660236,41.3354626 31.8061846,40.240189 L31.8262069,39.7611419 L37.8724732,39.7611419 L37.4708632,40.502776 Z M72.8361662,32.7581413 C71.4020114,32.2053512 70.0146529,31.9375269 68.2692213,32.3169447 C66.9037476,32.6121929 65.8076436,33.1753254 65.0896349,34.5797935 C65.4059172,34.8441823 65.69042,35.0947571 65.9682875,35.3437703 C66.4268213,35.750624 66.898742,36.1694899 67.5329364,36.6570657 C68.035007,35.9222785 68.9135433,35.0947571 69.8523792,35.0758979 C70.9451074,35.0535552 71.9894095,35.6699019 72.1618108,36.5729802 C72.2320052,36.9472808 72.2789179,38.4940935 72.2789179,38.4940935 L71.7082826,38.6195011 C71.5949005,38.6628651 71.4701105,38.6628651 71.3568448,38.6195011 C71.3283247,38.6091706 71.2965451,38.5971583 71.2663953,38.5834644 L71.1911953,38.5542747 C70.0159334,38.0880807 68.7694293,37.8393078 67.5095383,37.8193675 C67.0859272,37.8192474 66.662898,37.8531218 66.2444089,37.9207506 C64.9591408,38.1284418 63.431277,38.8735594 63.458051,41.2513771 C63.4680621,42.1561371 63.6538504,42.8343467 64.0404435,43.3854671 C64.3819866,43.8881782 64.839007,44.297074 65.3709946,44.5757573 C65.9030987,44.8545608 66.4938727,44.9946232 67.0911655,44.9838123 C68.5513959,45.0296989 69.97682,44.5211018 71.0941104,43.5553198 C71.1158789,43.5364606 71.3836188,43.297898 71.4589352,43.2360351 L72.2471383,42.6093579 L72.2471383,44.9666348 L75.5354504,44.9666348 L75.5354504,36.7257755 C75.5354504,34.859558 74.5448126,33.4174917 72.8361662,32.7581413 Z M71.8203841,40.5028961 C71.1191383,41.7938487 69.9712324,42.5235907 68.6541847,42.5235907 C68.5972609,42.5235907 68.5403371,42.5235907 68.4867891,42.5235907 C68.2099693,42.5177047 67.9345463,42.4814278 67.6651767,42.4153607 C66.6777984,42.1492901 66.1171742,41.3354626 66.1590813,40.240189 L66.1791036,39.7611419 L72.2236238,39.7611419 L71.8203841,40.5028961 Z M95.3024573,32.7581413 C93.8683025,32.2053512 92.480944,31.9375269 90.7338827,32.3169447 C89.3700387,32.6121929 88.2738183,33.1753254 87.5542963,34.5797935 C87.8705786,34.8441823 88.1550814,35.0947571 88.4328325,35.3437703 C88.8897365,35.750624 89.363287,36.1694899 89.9974814,36.6570657 C90.499552,35.9222785 91.3764585,35.0947571 92.3169242,35.0758979 C93.4097688,35.0535552 94.4539545,35.6699019 94.6263558,36.5729802 C94.6966666,36.9472808 94.7434629,38.4940935 94.7434629,38.4940935 L94.1711979,38.6195011 C94.0582814,38.6625048 93.9341898,38.6625048 93.8213898,38.6195011 C93.7929861,38.6091706 93.7612065,38.5971583 93.7310567,38.5834644 L93.6557403,38.5542747 C92.4804783,38.0880807 91.2339743,37.8393078 89.9740833,37.8193675 C89.5504721,37.8192474 89.127443,37.8531218 88.7089539,37.9207506 C87.4238022,38.1284418 85.895822,38.8735594 85.922596,41.2513771 C85.9327235,42.1561371 86.1167656,42.8343467 86.5049885,43.3854671 C86.846648,43.8881782 87.303552,44.297074 87.835656,44.5757573 C88.3676437,44.8545608 88.9584176,44.9946232 89.5557105,44.9838123 C91.0159409,45.0296989 92.441365,44.5211018 93.5586554,43.5553198 C93.5804239,43.5364606 93.8481638,43.297898 93.9234802,43.2360351 L94.7116833,42.6093579 L94.7116833,44.9666348 L97.9999977,44.9666348 L97.9999977,36.7257755 C98.0017415,34.859558 97.0109873,33.4174917 95.3024573,32.7581413 Z M94.2866753,40.5028961 C93.5837997,41.7938487 92.4374071,42.5235907 91.1187297,42.5235907 C91.063552,42.5235907 91.0066282,42.5235907 90.9514505,42.5235907 C90.6739322,42.5177047 90.3979273,42.4814278 90.128092,42.4153607 C89.1423433,42.1492901 88.5818356,41.3354626 88.6219966,40.240189 L88.6420189,39.7611419 L94.6849093,39.7611419 L94.2866753,40.5028961 Z M84.5437353,33.1993499 C83.4794108,33.2492006 82.7212412,33.7264458 82.219287,34.6655607 C82.1639929,34.7686255 81.8092956,35.4827516 81.8092956,35.4827516 L81.0210925,35.2957215 L81.0210925,34.8973964 L81.0210925,33.3659593 L77.8415061,33.3659593 L77.8415061,44.9923409 L81.029474,44.9923409 L81.029474,43.9364673 C81.029474,42.8422748 81.029474,41.749884 81.029474,40.6590549 L81.029474,40.4513637 C81.029474,40.0650509 81.0043297,39.6650442 81.029474,39.2650374 C81.075921,38.5649656 81.3587941,37.9035731 81.8295507,37.3946156 C82.3003074,36.8856581 82.9292634,36.5610881 83.6082752,36.4768825 C84.053422,36.4116561 85.1729241,36.4064909 85.2950368,36.404689 L85.2950368,33.1925029 C85.029043,33.1891395 84.7847012,33.1873377 84.5437353,33.1993499 Z M26.6450898,42.2762592 C26.365127,42.2715745 26.0856298,42.2486311 25.8083443,42.2076695 C24.9717152,42.0668863 24.437865,41.6445369 24.2102861,40.9491498 C24.1080793,40.6585744 24.0516211,40.3532239 24.0428904,40.0443899 L24.0428904,34.852711 L24.5365796,34.8303683 C25.5925226,34.7771542 26.7120248,34.6982339 27.7747195,34.3960066 L27.0969883,32.0250719 L24.0428904,32.4903289 L24.0428904,29 L20.4365499,29 L20.4365499,32.4903289 L18,32.4903289 L18,34.8835824 L20.4365499,34.8835824 C20.4365499,34.8835824 20.4365499,39.8195212 20.4566886,41.0797226 C20.4586675,41.8493451 20.675304,42.6022707 21.0808718,43.249729 C21.5661796,44.0068589 22.2706848,44.4807407 23.3014836,44.741646 C24.411091,45.0215306 25.5355988,45.0078367 26.7237821,44.9940226 L27.0082849,44.9940226 L27.0082849,42.2900733 L26.871039,42.2900733 L26.6450898,42.2762592 Z M54.2589723,38.4426813 C54.2589723,37.2683672 55.0287828,36.3412646 56.0747147,36.2416833 C57.3364683,36.1197593 58.2235023,36.7669774 58.4493352,37.9704811 C58.4830937,38.1821363 58.4971791,38.3965544 58.4912423,38.6108523 C58.4912423,40.3569477 58.4912423,42.0875473 58.4912423,43.8198287 L58.4912423,44.9769653 L61.6708287,44.9769653 L61.6708287,43.1759741 C61.6708287,41.1552794 61.6708287,39.1344647 61.6708287,37.11377 C61.6742045,36.7352652 61.6440547,36.3571207 61.5803791,35.9841414 C61.3160151,34.541955 60.5629674,33.6629012 59.2928324,33.2920842 C57.9172311,32.8972427 55.6111754,33.1925029 54.5400992,35.1137364 L54.051532,36.1162758 C53.7704051,34.6775729 52.968815,33.6355134 51.6902986,33.2595311 C50.3146974,32.8645695 48.2395964,33.1959865 47.1718961,35.1170998 L46.6932237,35.9754926 L46.6932237,33.3642776 L43.3663803,33.3642776 L43.3663803,44.9923409 L46.6798367,44.9923409 C46.6798367,44.9923409 46.6798367,40.3826538 46.6798367,38.6847274 C46.6797202,38.4671862 46.6931072,38.2497651 46.7199976,38.0340257 C46.7582961,37.6264513 46.9188237,37.2410995 47.1795791,36.9310643 C47.4403345,36.6211491 47.7885128,36.4018061 48.1759209,36.3034261 C49.0829772,36.0630617 50.025189,36.3618054 50.5187618,37.0502254 C50.8110639,37.4950377 50.9538974,38.0254971 50.9254936,38.5611217 C50.9254936,40.2023505 50.9254936,44.9838123 50.9254936,44.9838123 L54.2589723,44.9838123 L54.2589723,38.4426813 Z" id="Combined-Shape" fill="#7A8599" fill-rule="nonzero" mask="url(#mask-2)"></path>
            </g>
        </g>
    </g>
</svg>