<svg width="95" height="31" viewBox="0 0 95 31" xmlns="http://www.w3.org/2000/svg">
    <g fill="#7A8599" fill-rule="nonzero">
        <path d="M41.046 30.433h-7.638L38.185.912h7.637zM68.733 1.634c-1.506-.598-3.896-1.257-6.85-1.257-7.543 0-12.854 4.02-12.887 9.767-.062 4.24 3.803 6.595 6.694 8.008 2.955 1.445 3.96 2.388 3.96 3.676-.03 1.977-2.388 2.89-4.587 2.89-3.05 0-4.684-.47-7.167-1.571l-1.005-.472-1.069 6.627c1.791.816 5.092 1.54 8.518 1.571 8.014 0 13.232-3.957 13.294-10.082.03-3.36-2.011-5.935-6.412-8.04-2.67-1.35-4.307-2.261-4.307-3.643.031-1.256 1.384-2.543 4.4-2.543 2.482-.063 4.307.533 5.689 1.13l.69.313 1.04-6.374zM78.885 19.975c.629-1.696 3.049-8.26 3.049-8.26-.032.063.628-1.727 1.005-2.826l.534 2.543s1.446 7.067 1.76 8.543h-6.348zM88.312.912h-5.907c-1.822 0-3.206.533-3.992 2.45l-11.345 27.07h8.014s1.32-3.643 1.603-4.428h9.806c.22 1.037.911 4.429.911 4.429h7.072L88.312.912zM27.028.912l-7.48 20.13-.817-4.082c-1.383-4.711-5.72-9.83-10.56-12.374l6.852 25.816h8.076L35.105.912h-8.077z"/>
        <path d="M12.603.912H.314l-.125.596c9.585 2.45 15.934 8.355 18.542 15.453L16.06 3.394c-.44-1.886-1.792-2.42-3.457-2.482z"/>
    </g>
</svg>
